<?xml version="1.0" encoding="UTF-8"?>
<svg width="44px" height="44px" viewBox="0 0 44 44" version="1.1" xmlns="http://www.w3.org/2000/svg" xmlns:xlink="http://www.w3.org/1999/xlink">
    <title>2</title>
    <g id="页面-1" stroke="none" stroke-width="1" fill="none" fill-rule="evenodd">
        <g id="步骤2" transform="translate(-165.000000, -98.000000)" fill="#000000" fill-rule="nonzero">
            <g id="编组-4" transform="translate(165.000000, 77.000000)">
                <path d="M39.2939453,64 L39.2939453,54.5976562 L21.2822266,54.5976562 C22.3395182,53.5592448 23.2599284,52.7190755 24.043457,52.0771484 C24.8269857,51.4352214 26.3798828,50.311849 28.7021484,48.7070312 C32.6103516,45.9505208 35.3055013,43.4205729 36.7875977,41.1171875 C38.269694,38.8138021 39.0107422,36.3971354 39.0107422,33.8671875 C39.0107422,31.4882812 38.3640951,29.3406576 37.0708008,27.4243164 C35.7775065,25.5079753 34.0027669,24.0872396 31.746582,23.1621094 C29.4903971,22.2369792 26.3326823,21.7744141 22.2734375,21.7744141 C18.3841146,21.7744141 15.339681,22.2605794 13.1401367,23.2329102 C10.9405924,24.2052409 9.23665365,25.6023763 8.02832031,27.4243164 C6.81998698,29.2462565 5.98925781,31.7809245 5.53613281,35.0283203 L5.53613281,35.0283203 L17.0908203,35.9628906 C17.4117839,33.6217448 18.0395508,31.9886068 18.9741211,31.0634766 C19.9086914,30.1383464 21.1123047,29.6757812 22.5849609,29.6757812 C24.0009766,29.6757812 25.1762695,30.1241862 26.1108398,31.0209961 C27.0454102,31.917806 27.5126953,32.9986979 27.5126953,34.2636719 C27.5126953,35.4342448 27.0406901,36.6708984 26.0966797,37.9736328 C25.1526693,39.2763672 22.9908854,41.1832682 19.6113281,43.6943359 C14.0794271,47.7913411 10.3081055,51.3455404 8.29736328,54.3569336 C6.28662109,57.3683268 5.08300781,60.5826823 4.68652344,64 L4.68652344,64 L39.2939453,64 Z" id="2"></path>
            </g>
        </g>
    </g>
</svg>