<?xml version="1.0" encoding="UTF-8"?>
<svg width="28px" height="28px" viewBox="0 0 28 28" version="1.1" xmlns="http://www.w3.org/2000/svg" xmlns:xlink="http://www.w3.org/1999/xlink">
    <title>2</title>
    <g id="页面-1" stroke="none" stroke-width="1" fill="none" fill-rule="evenodd">
        <g id="步骤3" transform="translate(-173.000000, -106.000000)" fill="#000000" fill-rule="nonzero">
            <g id="编组-4" transform="translate(173.000000, 93.000000)">
                <path d="M24.9238281,40 L24.9238281,34.1640625 L13.7441406,34.1640625 C14.4003906,33.5195312 14.9716797,32.9980469 15.4580078,32.5996094 C15.9443359,32.2011719 16.9082031,31.5039062 18.3496094,30.5078125 C20.7753906,28.796875 22.4482422,27.2265625 23.3681641,25.796875 C24.2880859,24.3671875 24.7480469,22.8671875 24.7480469,21.296875 C24.7480469,19.8203125 24.3466797,18.4873047 23.5439453,17.2978516 C22.7412109,16.1083984 21.6396484,15.2265625 20.2392578,14.6523438 C18.8388672,14.078125 16.8789062,13.7910156 14.359375,13.7910156 C11.9453125,13.7910156 10.0556641,14.0927734 8.69042969,14.6962891 C7.32519531,15.2998047 6.26757812,16.1669922 5.51757812,17.2978516 C4.76757812,18.4287109 4.25195312,20.0019531 3.97070312,22.0175781 L3.97070312,22.0175781 L11.1425781,22.5976562 C11.3417969,21.1445312 11.7314453,20.1308594 12.3115234,19.5566406 C12.8916016,18.9824219 13.6386719,18.6953125 14.5527344,18.6953125 C15.4316406,18.6953125 16.1611328,18.9736328 16.7412109,19.5302734 C17.3212891,20.0869141 17.6113281,20.7578125 17.6113281,21.5429688 C17.6113281,22.2695312 17.3183594,23.0371094 16.7324219,23.8457031 C16.1464844,24.6542969 14.8046875,25.8378906 12.7070312,27.3964844 C9.2734375,29.9394531 6.93261719,32.1455078 5.68457031,34.0146484 C4.43652344,35.8837891 3.68945312,37.8789062 3.44335938,40 L3.44335938,40 L24.9238281,40 Z" id="2"></path>
            </g>
        </g>
    </g>
</svg>