<?xml version="1.0" encoding="UTF-8"?>
<svg width="44px" height="44px" viewBox="0 0 44 44" version="1.1" xmlns="http://www.w3.org/2000/svg" xmlns:xlink="http://www.w3.org/1999/xlink">
    <title>3</title>
    <g id="页面-1" stroke="none" stroke-width="1" fill="none" fill-rule="evenodd">
        <g id="步骤3" transform="translate(-282.000000, -98.000000)" fill="#000000" fill-rule="nonzero">
            <g id="编组-2" transform="translate(282.000000, 77.000000)">
                <path d="M21.7548828,64.7080078 C25.6253255,64.7080078 28.75,64.1085612 31.1289062,62.909668 C33.5078125,61.7107747 35.3297526,60.0021159 36.5947266,57.7836914 C37.8597005,55.5652669 38.4921875,53.2477214 38.4921875,50.8310547 C38.4921875,48.9052734 38.1098633,47.2485352 37.3452148,45.8608398 C36.5805664,44.4731445 35.5091146,43.3544922 34.1308594,42.5048828 C33.28125,41.976237 32.0540365,41.5136719 30.4492188,41.1171875 C32.4316406,40.0221354 33.913737,38.7477214 34.8955078,37.2939453 C35.8772786,35.8401693 36.3681641,34.2164714 36.3681641,32.4228516 C36.3681641,29.3642578 35.1598307,26.8248698 32.7431641,24.8046875 C30.3264974,22.7845052 26.4088542,21.7744141 20.9902344,21.7744141 C16.2701823,21.7744141 12.621582,22.6995443 10.0444336,24.5498047 C7.46728516,26.4000651 5.72558594,29.0621745 4.81933594,32.5361328 L4.81933594,32.5361328 L15.7226562,34.4902344 C16.0247396,32.4322917 16.6005859,30.9926758 17.4501953,30.1713867 C18.2998047,29.3500977 19.4042969,28.9394531 20.7636719,28.9394531 C22.0852865,28.9394531 23.1236979,29.3170573 23.8789062,30.0722656 C24.6341146,30.827474 25.0117188,31.8375651 25.0117188,33.1025391 C25.0117188,34.4241536 24.5066732,35.5664062 23.496582,36.5292969 C22.4864909,37.4921875 21.226237,37.9736328 19.7158203,37.9736328 C19.3570964,37.9736328 18.8567708,37.9264323 18.2148438,37.8320312 L18.2148438,37.8320312 L17.6201172,46.0732422 C19.2060547,45.6201172 20.4521484,45.3935547 21.3583984,45.3935547 C23.0576172,45.3935547 24.402832,45.9222005 25.394043,46.9794922 C26.3852539,48.0367839 26.8808594,49.5283203 26.8808594,51.4541016 C26.8808594,53.3421224 26.3663737,54.8525391 25.3374023,55.9853516 C24.308431,57.1181641 23.0198568,57.6845703 21.4716797,57.6845703 C19.9990234,57.6845703 18.7859701,57.2361654 17.8325195,56.3393555 C16.879069,55.4425456 16.1757812,53.8330078 15.7226562,51.5107422 L15.7226562,51.5107422 L4.19628906,53.0400391 C4.9514974,55.6266276 6.03238932,57.7742513 7.43896484,59.4829102 C8.84554036,61.191569 10.6391602,62.4895833 12.8198242,63.3769531 C15.0004883,64.2643229 17.9788411,64.7080078 21.7548828,64.7080078 Z" id="3"></path>
            </g>
        </g>
    </g>
</svg>