<?xml version="1.0" encoding="UTF-8"?>
<svg width="28px" height="28px" viewBox="0 0 28 28" version="1.1" xmlns="http://www.w3.org/2000/svg" xmlns:xlink="http://www.w3.org/1999/xlink">
    <title>3</title>
    <g id="页面-1" stroke="none" stroke-width="1" fill="none" fill-rule="evenodd">
        <g id="步骤2" transform="translate(-287.000000, -106.000000)" fill="#999999" fill-rule="nonzero">
            <g id="编组-5" transform="translate(287.000000, 93.000000)">
                <path d="M15.1582031,40.4394531 C17.5605469,40.4394531 19.5,40.0673828 20.9765625,39.3232422 C22.453125,38.5791016 23.5839844,37.5185547 24.3691406,36.1416016 C25.1542969,34.7646484 25.546875,33.3261719 25.546875,31.8261719 C25.546875,30.6308594 25.3095703,29.6025391 24.8349609,28.7412109 C24.3603516,27.8798828 23.6953125,27.1855469 22.8398438,26.6582031 C22.3125,26.3300781 21.5507812,26.0429688 20.5546875,25.796875 C21.7851562,25.1171875 22.7050781,24.3261719 23.3144531,23.4238281 C23.9238281,22.5214844 24.2285156,21.5136719 24.2285156,20.4003906 C24.2285156,18.5019531 23.4785156,16.9257812 21.9785156,15.671875 C20.4785156,14.4179688 18.046875,13.7910156 14.6835938,13.7910156 C11.7539062,13.7910156 9.48925781,14.3652344 7.88964844,15.5136719 C6.29003906,16.6621094 5.20898438,18.3144531 4.64648438,20.4707031 L4.64648438,20.4707031 L11.4140625,21.6835938 C11.6015625,20.40625 11.9589844,19.5126953 12.4863281,19.0029297 C13.0136719,18.4931641 13.6992188,18.2382812 14.5429688,18.2382812 C15.3632812,18.2382812 16.0078125,18.4726562 16.4765625,18.9414062 C16.9453125,19.4101562 17.1796875,20.0371094 17.1796875,20.8222656 C17.1796875,21.6425781 16.8662109,22.3515625 16.2392578,22.9492188 C15.6123047,23.546875 14.8300781,23.8457031 13.8925781,23.8457031 C13.6699219,23.8457031 13.359375,23.8164062 12.9609375,23.7578125 L12.9609375,23.7578125 L12.5917969,28.8730469 C13.5761719,28.5917969 14.3496094,28.4511719 14.9121094,28.4511719 C15.9667969,28.4511719 16.8017578,28.7792969 17.4169922,29.4355469 C18.0322266,30.0917969 18.3398438,31.0175781 18.3398438,32.2128906 C18.3398438,33.3847656 18.0205078,34.3222656 17.3818359,35.0253906 C16.7431641,35.7285156 15.9433594,36.0800781 14.9824219,36.0800781 C14.0683594,36.0800781 13.3154297,35.8017578 12.7236328,35.2451172 C12.1318359,34.6884766 11.6953125,33.6894531 11.4140625,32.2480469 L11.4140625,32.2480469 L4.25976562,33.1972656 C4.72851562,34.8027344 5.39941406,36.1357422 6.27246094,37.1962891 C7.14550781,38.2568359 8.25878906,39.0625 9.61230469,39.6132812 C10.9658203,40.1640625 12.8144531,40.4394531 15.1582031,40.4394531 Z" id="3"></path>
            </g>
        </g>
    </g>
</svg>