<?xml version="1.0" encoding="UTF-8"?>
<svg width="24px" height="24px" viewBox="0 0 24 24" version="1.1" xmlns="http://www.w3.org/2000/svg" xmlns:xlink="http://www.w3.org/1999/xlink">
    <title>形状</title>
    <g id="页面-1" stroke="none" stroke-width="1" fill="none" fill-rule="evenodd">
        <g id="画板" transform="translate(-27.000000, -21.000000)" fill="#FFFFFF" fill-rule="nonzero">
            <path d="M39,21 C32.3726667,21 27,26.3726667 27,33 C27,39.6273333 32.3726667,45 39,45 C45.6273333,45 51,39.6273333 51,33 C51,26.3726667 45.6273333,21 39,21 Z M41.7533819,26.3064558 C42.0827165,26.659202 42.0821386,27.1985193 41.7520486,27.5505936 L41.6820491,27.6175456 L36.0774198,32.4991939 L41.6820491,37.3808422 C42.0513799,37.7026019 42.1027129,38.2388682 41.8153815,38.6191298 L41.7533819,38.692582 C41.4213842,39.0500928 40.8667212,39.0994943 40.4747238,38.8212859 L40.3987243,38.7614841 L34.5294301,33.6503789 C34.2074118,33.3710834 34.0165064,32.9755608 34.0010207,32.5556071 C33.9855349,32.1356535 34.1468153,31.7277844 34.4474307,31.4266613 L34.5294301,31.349309 L40.3987243,26.2382037 C40.7933934,25.8954667 41.3974289,25.9261898 41.7533819,26.3071058 L41.7533819,26.3064558 Z" id="形状"></path>
        </g>
    </g>
</svg>