<?xml version="1.0" encoding="UTF-8"?>
<svg width="37px" height="34px" viewBox="0 0 37 34" version="1.1" xmlns="http://www.w3.org/2000/svg" xmlns:xlink="http://www.w3.org/1999/xlink">
    <title>形状</title>
    <g id="页面-1" stroke="none" stroke-width="1" fill="none" fill-rule="evenodd">
        <g id="步骤2" transform="translate(-170.000000, -242.000000)" fill="#FF782E" fill-rule="nonzero">
            <g id="编组-2备份" transform="translate(136.000000, 242.000000)">
                <g id="拍照备份" transform="translate(34.000000, 0.000000)">
                    <path d="M30.3598245,7.76128153 C29.4798193,7.76128153 28.759798,8.48788034 28.759798,9.33563561 C28.759798,10.223726 29.4797819,10.9503626 30.3598245,10.9503626 C31.2398298,10.9503626 31.959851,10.2237638 31.959851,9.33563561 C31.959851,8.48791811 31.2398672,7.76128153 30.3598245,7.76128153 L30.3598245,7.76128153 Z M32.9198295,34 L4.19996197,34 C1.35999446,34 0,32.6275104 0,29.8825312 L0,10.0621967 C0,8.73007995 0.479989238,7.51904416 1.48001048,6.50991061 C2.44002638,5.50070154 3.72001015,5.13742101 4.99995651,5.13742101 L5.95997241,5.13742101 C6.39995631,5.13742101 6.87998297,4.85484851 7.27999895,4.61261114 C7.67997751,4.33003864 7.99998281,3.84563944 8.20000951,3.44194825 L9.32000935,1.14099536 C9.52003605,0.737341943 9.84004135,0.454731677 10.2400199,0.212532073 C10.6399985,-0.0700404266 11.1200251,0.0106675968 11.5600464,0.0106675968 L25.4799963,0.0106675968 C25.9199802,0.0106675968 26.3600015,-0.0297052984 26.7999854,0.212532073 C27.199964,0.495104572 27.5199693,0.656558386 27.719996,1.10062247 L28.8399958,3.44194825 C29.0400225,3.88597456 29.3199851,4.33003864 29.7600064,4.57223825 C30.1599849,4.85481075 30.6000063,5.13738325 31.0800329,5.13738325 L32.0000435,5.13738325 C33.2800647,5.13738325 34.5600485,5.50070154 35.5599949,6.50987285 C36.5200108,7.51908193 37,8.73007995 37,10.0621589 L37,29.8824934 C37,32.6275104 35.7599841,34 32.9200166,34 L32.9198295,34 Z M18.5999011,7.76128153 C12.4799073,7.76128153 7.4799508,12.6860949 7.4799508,18.7411606 C7.4799508,24.8365991 12.4799073,29.7210396 18.5999011,29.7210396 C24.7598628,29.7210396 29.7198514,24.8365991 29.7198514,18.7411606 C29.7198514,12.6860949 24.7599002,7.76128153 18.5999011,7.76128153 Z M18.5999011,27.4604974 C13.7599285,27.4604974 9.79996116,23.5448931 9.79996116,18.7411606 C9.79996116,13.9374281 13.7599285,10.0621967 18.5999011,10.0621967 C23.479879,10.0621967 27.4398463,13.9374281 27.4398463,18.7411606 C27.4398463,23.5448553 23.479879,27.4604974 18.5999011,27.4604974 L18.5999011,27.4604974 Z" id="形状"></path>
                </g>
            </g>
        </g>
    </g>
</svg>