<?xml version="1.0" encoding="UTF-8"?>
<svg width="14px" height="14px" viewBox="0 0 14 14" version="1.1" xmlns="http://www.w3.org/2000/svg" xmlns:xlink="http://www.w3.org/1999/xlink">
    <title>31shijian</title>
    <defs>
        <filter id="filter-1">
            <feColorMatrix in="SourceGraphic" type="matrix" values="0 0 0 0 1.000000 0 0 0 0 0.352941 0 0 0 0 0.000000 0 0 0 1.000000 0"></feColorMatrix>
        </filter>
    </defs>
    <g id="页面-1" stroke="none" stroke-width="1" fill="none" fill-rule="evenodd">
        <g id="我的报告" transform="translate(-291.000000, -284.000000)">
            <g id="编组-4" transform="translate(12.000000, 217.000000)">
                <g id="编组-8" transform="translate(278.998770, 65.000000)">
                    <g id="31shijian" transform="translate(-0.000000, 2.000000)" filter="url(#filter-1)">
                        <g>
                            <g id="编组" fill="#FF782E">
                                <path d="M11.9528945,2.04815574 C9.22234083,-0.682718581 4.77897246,-0.682718581 2.04833572,2.04815574 C-0.682778574,4.7784695 -0.682778574,9.22150974 2.04833572,11.9519065 C4.77897246,14.6826978 9.22234083,14.6826978 11.9528945,11.9519065 C14.6840088,9.22150974 14.6840088,4.7784695 11.9528945,2.04815574 Z M11.2421424,11.2410716 C8.90335266,13.5801542 5.09740001,13.5796766 2.75917084,11.2410716 C0.419882739,8.9025496 0.419882739,5.09742964 2.75917084,2.75859622 C5.09740001,0.420323362 8.90343571,0.419825084 11.2421424,2.75859622 C13.5808699,5.09693136 13.5808699,8.90304787 11.2421424,11.2410716 Z" id="Fill-1"></path>
                            </g>
                            <path d="M10.0845174,6.94551184 L6.95943627,6.94551184 L6.95987232,3.08945862 C6.95987232,2.83364162 6.77237049,2.625 6.54270445,2.625 C6.31313319,2.625 6.12650346,2.83364162 6.12650346,3.08945862 L6.12650346,7.06678068 C6.12650346,7.08090581 6.11118481,7.41335372 6.30994813,7.64967466 C6.4362891,7.79877085 6.61387552,7.87451366 6.84301072,7.87451366 L10.0845174,7.875 C10.3141645,7.875 10.5012302,7.66692931 10.5012302,7.41030878 C10.5011544,7.15514729 10.3146005,6.94701316 10.0845174,6.94551184 Z" id="Fill-3" fill="#FF782E"></path>
                        </g>
                    </g>
                </g>
            </g>
        </g>
    </g>
</svg>