<svg t="1627979886960" class="icon" viewBox="0 0 1092 1024" version="1.1" xmlns="http://www.w3.org/2000/svg" p-id="2027" width="32" height="32"><path d="M1087.961603 395.442437a85.600693 85.600693 0 0 0-69.627359-58.568895l-272.365842-47.10086L624.325312 48.329578A87.648557 87.648557 0 0 0 467.732018 48.193054L345.952403 289.909206l-271.683221 48.466102a86.010266 86.010266 0 0 0-70.036931 58.500634c-10.239317 30.991001-1.501767 65.736418 22.594761 88.877274l195.434437 177.891074-51.196587 259.396041v0.273048c-5.597494 32.424505 8.05493 65.258583 34.813679 83.962403 25.80308 18.772082 63.415506 21.707353 91.198187 7.167522L546.096927 894.438504l246.699287 119.800013c9.829745 5.051397 20.683421 8.191454 31.605359 9.283648V1023.931738h8.942337c18.157723 0 36.315446-5.870542 51.060063-16.382908 26.895274-19.181655 40.820745-52.493567 35.018466-84.918072l-49.558297-258.986468 196.117059-180.211985 0.204787-0.204787a85.327645 85.327645 0 0 0 21.775615-87.785081z m-238.849144 565.073795c-3.413106 2.525698-9.147124 4.641824-16.587694 0.887408l-286.632624-139.118192-288.748751 139.527764-0.136524 0.204787a15.15419 15.15419 0 0 1-16.246383-1.501767 14.539831 14.539831 0 0 1-5.938804-13.857209l60.275448-305.541231L65.122059 431.34831a14.744617 14.744617 0 0 1-3.617893-15.290714V415.716286c1.706553-5.665756 6.621425-9.215386 12.969802-10.239318l316.46317-56.79408L532.239717 67.784281c2.798747-5.460969 9.010599-7.508833 13.925472-7.508833 4.641824 0 10.64889 1.843077 13.379375 7.304047l141.575628 281.239917 317.077528 54.814479h0.204786a14.881141 14.881141 0 0 1 12.355443 10.239317 14.744617 14.744617 0 0 1-3.208319 14.744617l-230.384641 212.499967 58.364109 304.926872a15.290714 15.290714 0 0 1-6.416639 14.471568z" p-id="2028" fill="#fff"></path></svg>