<svg t="1627979921835" class="icon" viewBox="0 0 1096 1024" version="1.1" xmlns="http://www.w3.org/2000/svg" p-id="2275" width="32" height="32"><path d="M1092.510389 395.342235a85.912174 85.912174 0 0 0-69.899607-58.493395l-273.456623-47.233417L626.75673 48.403285A88.03256 88.03256 0 0 0 469.628847 48.257051L347.377651 289.834773l-272.725455 48.403285a86.277758 86.277758 0 0 0-70.411425 58.493395c-10.236344 31.001499-1.462335 65.731953 22.666191 88.909961l196.318457 177.819921-51.474187 259.345091v0.219351c-5.556873 32.390718 8.115959 65.220136 34.949803 84.011138a90.664763 90.664763 0 0 0 91.615281 7.092325l250.059264-119.911461 247.719529 119.765227c9.87076 5.045055 20.765155 8.189075 31.732667 9.21271V1023.634416h8.993359c18.279186 0 36.485255-5.84934 51.254838-16.451267 27.053195-19.156587 40.945377-52.351589 35.169154-84.815423l-49.719386-258.833274L1070.429132 483.301678l0.219351-0.21935c23.397358-22.300607 32.171367-57.03106 21.861906-87.740093z" p-id="2276" fill="#fff"></path></svg>