<svg t="1634267798309" class="icon" viewBox="0 0 1024 1024" version="1.1" xmlns="http://www.w3.org/2000/svg" p-id="931" width="32" height="32"><path d="M799.161051 882.980571a63.268571 63.268571 0 0 1-62.317714 64H287.161051a63.414857 63.414857 0 0 1-62.390857-64v-678.765714h574.390857v678.765714zM349.551909 89.380571c0-7.387429 5.632-13.165714 12.8-13.165714h299.958857c7.241143 0 12.726857 5.778286 12.726857 13.165714v38.619429H349.625051v-38.619429z m636.708571 38.619429h-236.690286v-38.619429C749.570194 40.228571 710.438766 0 662.310766 0h-299.885715c-48.128 0.073143-87.186286 40.009143-87.259428 89.380571v38.619429H37.670766A38.034286 38.034286 0 0 0 0.002194 166.473143c0 21.211429 16.822857 38.546286 37.668572 38.546286h111.908571v677.961142c0 77.824 61.659429 141.019429 137.581714 141.019429h449.536c76.068571 0 137.654857-63.195429 137.654858-141.019429v-678.765714h111.981714A38.034286 38.034286 0 0 0 1024.002194 165.595429a37.302857 37.302857 0 0 0-37.741714-37.595429z m-474.331429 703.341714a38.034286 38.034286 0 0 0 37.668572-38.619428V382.902857a38.034286 38.034286 0 0 0-37.668572-38.619428 38.034286 38.034286 0 0 0-37.595428 38.619428v409.819429c0 21.284571 16.822857 38.619429 37.595428 38.619428m-175.177142 0a38.034286 38.034286 0 0 0 37.668571-38.619428V382.902857a38.034286 38.034286 0 0 0-37.668571-38.619428 38.034286 38.034286 0 0 0-37.595429 38.619428v409.819429c0.731429 21.284571 17.627429 38.619429 37.595429 38.619428m350.354285 0a38.034286 38.034286 0 0 0 37.668572-38.619428V382.902857a38.034286 38.034286 0 0 0-37.668572-38.619428 38.034286 38.034286 0 0 0-37.595428 38.619428v409.819429c0 21.284571 16.822857 38.619429 37.595428 38.619428" p-id="932" fill="#FF782E"></path></svg>