<svg t="1631257830840" class="icon" viewBox="0 0 1024 1024" version="1.1" xmlns="http://www.w3.org/2000/svg" p-id="3732" width="32" height="32"><path d="M476.16 753.664c-3.584-3.072-6.656-6.656-9.216-10.752L66.56 342.528c-9.728-9.216-15.36-22.016-15.36-35.84 0-12.8 5.12-25.6 14.848-35.84 19.456-19.968 51.2-19.968 71.168-0.512l375.808 375.296 373.76-374.784c19.456-19.456 51.712-19.968 71.68-0.512 19.968 19.456 19.968 51.2 0.512 71.168l-404.48 405.504c-9.728 13.824-26.112 21.504-43.52 20.992h-1.536c-12.8-0.512-24.576-5.632-33.28-14.336z" p-id="3733" fill="#cacaca"></path></svg>