<?xml version="1.0" encoding="UTF-8"?>
<svg width="281px" height="230px" viewBox="0 0 281 230" version="1.1" xmlns="http://www.w3.org/2000/svg" xmlns:xlink="http://www.w3.org/1999/xlink">
    <title>编组 7</title>
    <g id="页面-1" stroke="none" stroke-width="1" fill="none" fill-rule="evenodd">
        <g id="首页2" transform="translate(-47.000000, -179.000000)">
            <g id="编组-10" transform="translate(47.000000, 179.000000)">
                <g id="编组-7" transform="translate(0.086022, 5.000000)">
                    <g id="undraw_Profile_data_re_v81r" transform="translate(0.000000, 54.000000)" fill-rule="nonzero">
                        <g id="编组-6">
                            <path d="M153.94737,86.8772813 C153.675539,88.3081657 153.349516,89.724474 152.969301,91.1262062 C152.928064,91.2889723 152.88197,91.4493091 152.835875,91.6120752 L147.547872,91.6120752 C146.610104,91.6131182 145.850152,92.373866 145.849111,93.3126169 L145.849111,108.40371 C145.688903,108.702519 145.526326,108.998899 145.36375,109.295279 C144.524076,110.825767 143.650413,112.339249 142.757308,113.833296 C128.194882,138.11604 109.291022,155.190667 85.0253298,169.754395 C84.3415391,169.705808 83.8241122,169.669372 83.4730494,169.645086 C72.0064075,168.860408 60.500898,167.990702 49.3035973,165.410738 C37.5894216,162.711735 26.1301232,158.030387 16.9495099,150.268629 C7.76640916,142.504441 1.03451968,131.416909 0.100176443,119.420803 C-0.211377102,115.298031 0.205144694,111.152552 1.33064055,107.174473 C3.48312458,99.5171768 8.18635763,92.6275537 14.9716974,88.5511123 C25.6301946,82.1497876 39.5333656,83.454346 50.769403,88.7794708 C62.0030718,94.1021663 71.147317,102.913402 80.0755331,111.571576 C71.0611696,96.0973216 58.5102942,82.9829933 43.4526177,73.3045294 C38.4630972,70.107511 33.1678578,67.2603184 28.9258119,63.1182847 C24.6861345,58.9786804 21.5579521,53.1749746 22.3079214,47.2935297 C23.1596709,40.6225476 28.6176079,35.5597921 34.0851406,31.6558343 C36.2692628,30.0961946 38.5237624,28.6167234 40.8486683,27.25629 C47.4082621,23.4082072 54.504286,20.5051396 61.9982279,19.4289396 C72.1495622,17.9689031 83.1138972,20.184466 90.8966115,26.8700241 C99.6646199,34.4034238 103.2611,46.5525794 102.918991,58.1745671 C108.320995,50.3132059 116.652228,44.2957177 126.060946,44.0406364 C135.828826,43.7782671 145.113835,49.9560921 150.006187,58.4247897 C154.896286,66.891053 155.774699,77.2692257 153.94737,86.8772813 Z" id="路径" fill="#F0F0F0"></path>
                            <path d="M92.3084302,119.180866 C98.0686489,118.67614 103.389684,118.086459 108.971488,116.514931 C114.382017,114.991638 119.588335,112.441637 123.439956,108.27788 C127.582675,103.799434 129.818936,97.9833073 131.396729,92.1935626 C132.276423,88.9655104 132.999254,85.6923589 133.681282,82.4181038 C134.42129,78.865496 135.0788,75.2971881 135.653813,71.7131803 C136.798444,64.579127 137.615608,57.4030539 138.105304,50.184961 C138.164459,49.3087955 138.218693,48.4323197 138.268007,47.5555335 C138.298587,47.0146763 137.453056,47.0164024 137.422575,47.5555335 C137.020298,54.6705027 136.296645,61.7577397 135.251615,68.8172444 C134.220352,75.7531491 132.900885,82.6590323 131.226776,89.4706304 C129.80854,95.241133 127.972275,101.101732 124.334954,105.905421 C120.924089,110.410039 115.997641,113.353729 110.67827,115.113774 C105.265486,116.904728 99.5583326,117.619765 93.9020536,118.151462 C93.2081798,118.216688 93.0026998,118.278851 92.3084228,118.33968 C91.7706626,118.386799 91.7656634,119.228414 92.3084228,119.180854 L92.3084302,119.180866 Z" id="路径" fill="#FFFFFF"></path>
                            <path d="M23.4851363,111.357371 C30.4535858,113.445556 37.1500428,116.343405 43.435792,119.990891 C49.5094306,123.518164 55.1478249,127.738731 60.236342,132.566787 C65.1748302,137.255222 69.5761939,142.472666 73.3600485,148.12383 C77.1611039,153.789145 80.3111469,159.860361 82.7511285,166.223672 C83.0486629,167.00249 83.3352582,167.785293 83.6109146,168.572081 C83.7890082,169.079381 84.6058061,168.861157 84.4258976,168.348706 C82.143133,161.851008 79.1337818,155.62866 75.4543917,149.798582 C71.7757547,143.96802 67.4584463,138.560761 62.5815332,133.675834 C57.6265268,128.715164 52.1119189,124.339922 46.1472781,120.637039 C33.6235352,112.881206 19.4279588,108.189293 4.72622787,106.946579 C3.83939267,106.872687 2.95161868,106.811895 2.0629059,106.764203 C1.51941616,106.734628 1.52108449,107.574976 2.0629059,107.604462 C9.32822992,108.005073 16.5196692,109.264927 23.4851363,111.357371 Z" id="路径" fill="#FFFFFF"></path>
                            <path d="M40.8638139,28.112647 C45.5011166,29.5838878 49.8966562,31.7266116 53.909705,34.4722169 C58.0103912,37.2968865 61.7502827,40.6101125 65.0464842,44.3384568 C68.520032,48.2605491 71.6082135,52.5061598 74.2685529,57.0168937 C77.0903209,61.7795973 79.5416365,66.7512472 81.6009194,71.8880754 C83.7213814,77.161841 85.5048623,82.5642946 86.9406508,88.0629901 C88.4001134,93.6268704 89.5401118,99.2692989 90.3550865,104.96276 C91.1659242,110.595808 91.65662,116.27011 91.8248214,121.958462 C91.9943751,127.397764 91.8331881,132.842318 91.3421478,138.262158 C90.8930716,143.318581 90.0729446,148.335352 88.888363,153.272121 C87.8363324,157.730909 86.3537601,162.077538 84.461421,166.2511 C84.023043,167.198295 83.5579293,168.132424 83.0660799,169.053489 C82.8108941,169.531358 83.5389437,169.957045 83.7946002,169.478293 C85.8858521,165.491875 87.5557252,161.299254 88.7772587,156.968119 C90.1477711,152.146684 91.1412058,147.226436 91.7486183,142.251673 C92.4219548,136.854366 92.7498668,131.419744 92.7303614,125.980836 C92.71824,120.266867 92.3772882,114.558305 91.709189,108.883326 C91.0407718,103.137536 90.0483795,97.4338763 88.7367296,91.7994604 C87.4282712,86.1558084 85.7684778,80.5989961 83.7670021,75.16134 C81.8379579,69.897378 79.5282533,64.7801146 76.856112,59.8499251 C74.3110674,55.1452933 71.345162,50.6796479 67.9945593,46.5074385 C64.8125138,42.5348928 61.1797092,38.9435822 57.1688375,35.8053685 C53.3012773,32.7883884 49.0274958,30.3291579 44.473121,28.4999661 C43.360176,28.0580626 42.2318365,27.6584237 41.0881025,27.3010494 C40.5689622,27.1381159 40.3468219,27.9503922 40.863809,28.112647 L40.8638139,28.112647 Z" id="路径" fill="#FFFFFF"></path>
                            <circle id="椭圆形" fill="#F0F0F0" cx="41.9139785" cy="4" r="4"></circle>
                        </g>
                        <path d="M100.704465,63.3086534 C100.662056,63.492302 100.634413,63.6789594 100.621793,63.8668898 L85.781026,72.3017185 L82.1737698,70.2558284 L78.3282181,75.2156656 L86.0451631,80.6344049 L102.976222,67.4751327 C104.390112,67.9905845 105.980228,67.5903679 106.96992,66.4699583 C107.959612,65.3495488 108.142382,63.7427179 107.42896,62.4342806 C106.715539,61.1258433 105.25478,60.3888029 103.760154,60.5831477 C102.265528,60.7774924 101.048886,61.8626727 100.704465,63.3086602 L100.704465,63.3086534 Z" id="路径" fill="#FFC999"></path>
                        <path d="M67.2716511,67.6516294 L78.992507,76.9092065 L84.2347161,70.4122931 L72.8409472,60.3753002 C71.850254,59.5895266 70.5758355,59.2418943 69.3176706,59.4142309 C68.0595058,59.5865675 66.9287344,60.2636497 66.1915232,61.2861023 C64.7115354,63.3387305 65.1951251,66.1886739 67.2716511,67.6516294 Z" id="路径" fill="#615F7C"></path>
                        <polygon id="路径" fill="#FFC999" points="42.88923 163.454822 47.1649818 164.506677 53.5209264 149.521382 47.2107677 147.968482"></polygon>
                        <path d="M53.9708757,170.563712 L41.0349809,167.174145 L42.3445859,162.176187 L50.2825256,164.256149 C53.04282,164.979424 54.6941509,167.803414 53.9708765,170.563712 L53.9708765,170.563712 L53.9708757,170.563712 Z" id="路径" fill="#2F2E41"></path>
                        <polygon id="路径" fill="#FFC999" points="80.0381585 166.869276 84.2347161 166.101109 83.3403962 149.149782 77.1469185 150.283504"></polygon>
                        <path d="M92.4682859,168.21221 L79.3040601,170.56372 L78.3955219,165.477542 L86.4735692,164.03457 C87.8225076,163.79361 89.2119177,164.098384 90.3361452,164.881843 C91.4603726,165.665303 92.2273266,166.863272 92.4682859,168.21221 L92.4682859,168.21221 L92.4682859,168.21221 Z" id="路径" fill="#2F2E41"></path>
                        <path d="M71.1744208,45.0669223 C72.1659819,45.32 72.9727136,46.3794268 73.4571728,47.6067611 C73.9040154,48.8958586 74.2065732,50.2350052 74.3587666,51.597292 C74.7394314,54.1342675 75.1049989,56.8807428 74.317669,59.2304184 C73.3948762,61.9843541 70.9360605,63.4267572 68.8032285,62.7489187 C66.6703964,62.0710802 64.9741174,59.5267525 64.3945462,56.5979733 C63.86694,53.638638 64.2068902,50.5811303 65.3695929,47.8284164 C65.9754678,46.3820873 66.8105904,45.0477465 67.9204064,44.3951913 C69.0497621,43.6791249 70.5148217,43.9992231 71.2774182,45.1286587" id="路径" fill="#2F2E41"></path>
                        <path d="M77.5025469,90.0848017 L85.4160157,161.988936 L78.8801914,164.506677 L66.8258024,116.289687 L50.0432688,160.376126 L42.88923,160.779332 C42.88923,160.779332 52.7049468,92.181196 59.979433,90.622194 L77.5025469,90.0848017 Z" id="路径" fill="#2F2E41"></path>
                        <circle id="椭圆形" fill="#FFC999" cx="70.0591209" cy="45.1954169" r="8.2690972"></circle>
                        <path d="M73.8651462,57.0428498 L64.77052,55.8271133 C64.77052,55.8271133 58.8392601,63.1214622 59.2346779,75.6839535 C59.6300957,88.2464448 58.2461248,92.0962349 58.2461248,92.0962349 L77.2086793,92.4474009 C74.4674645,88.5845754 85.9331138,66.3989221 73.8651462,57.0428498 Z" id="路径" fill="#615F7C"></path>
                        <path d="M78.3160966,94.7230032 C78.1287036,94.7243657 77.9417088,94.7406399 77.756851,94.7716744 L66.2577741,82.4172133 L67.4301726,78.4729589 L61.7634795,75.9092065 L58.2461248,84.5865306 L74.7901266,97.8683799 C74.6080493,99.3485264 75.3524052,100.787962 76.6596331,101.483632 C77.966861,102.179302 79.5642103,101.986057 80.6714975,100.998281 C81.7787847,100.010505 82.1649765,98.4342973 81.6414476,97.0395143 C81.1179186,95.6447313 79.7939023,94.7223922 78.3160797,94.7229895 L78.3160966,94.7230032 Z" id="路径" fill="#FFC999"></path>
                        <path d="M65.9958802,62.2823725 L60.608724,75.8009236 L68.119297,79.4531053 L74.3392318,66.0745664 C74.8800561,64.9112945 74.93017,63.5706788 74.4777774,62.3682797 C74.0253849,61.1658806 73.1104478,60.2079116 71.9483283,59.7198638 L71.9483283,59.7198638 C70.8279717,59.2493493 69.5714289,59.254995 68.4551272,59.7355591 C67.3388255,60.2161232 66.4542073,61.13224 65.9958802,62.2823725 L65.9958802,62.2823725 Z" id="路径" fill="#615F7C"></path>
                        <path d="M68.2011849,53.0535707 C69.5238717,52.2730272 69.6649788,50.3901381 69.4852267,48.8389762 C69.3054746,47.2878142 69.0052026,45.5585749 69.8965359,44.2902708 C70.9603453,42.7765482 73.097615,42.7464111 74.9194594,42.6970004 C76.7413037,42.6475897 78.9599121,42.1018928 79.431959,40.3012305 C79.7438684,39.1114231 79.0765275,37.8346249 78.1188784,37.087766 C77.1612293,36.3409071 75.9631592,36.0107093 74.7986646,35.6968986 C72.1936888,34.9949009 69.5038824,34.2869863 66.8365605,34.6728176 C61.3389983,35.4680394 57.4860164,40.6338743 58.1883017,46.2678572 C58.6200195,49.7312439 59.2461652,51.2435952 58.8351756,52.7706742 C58.0696584,55.6150284 54.7689286,57.4422558 54.7032005,60.3916718 C54.6517838,62.6987212 56.6438977,64.4784646 58.5875198,65.6498845 C60.1291983,66.5790573 61.7930326,67.3674937 63.569712,67.585018 C65.3463915,67.8025423 67.2592288,67.3860745 68.5827577,66.1542396 C70.2897909,64.5654623 70.7120468,61.9111356 70.222554,59.6040475 C69.7330612,57.2969595 68.4774498,55.2481576 67.2353386,53.2584488" id="路径" fill="#2B2927"></path>
                        <g id="编组-4" transform="translate(99.913978, 50.000000)">
                            <path d="M8.11214267,4.90758178 L8.06398484,4.89353247 L8.86895033,2.46277185 C9.126255,1.68578174 8.99301456,0.956169348 8.57134444,0.833143237 L8.57134444,0.833143237 L5.77654939,0.0177363724 C5.35488335,-0.105297385 4.80446518,0.42484916 4.54715644,1.20184692 L4.54715644,1.20184692 L0.131054835,14.5372221 C-0.126253907,15.3142199 0.00697838971,16.0438437 0.428648507,16.1668546 L0.428648507,16.1668546 L3.22346392,16.9822652 C3.64513404,17.1052914 4.19554813,16.5751601 4.45285687,15.7981623 L4.45285687,15.7981623 L7.49100695,6.62380769 L7.53916478,6.63785701 L8.11214267,4.90758178 Z" id="路径" fill="#746D6A"></path>
                            <path d="M9.11214267,4.90758178 L9.06398484,4.89353247 L9.86895033,2.46277185 C10.126255,1.68578174 9.99301456,0.956169348 9.57134444,0.833143237 L9.57134444,0.833143237 L6.77654939,0.0177363724 C6.35488335,-0.105297385 5.80446518,0.42484916 5.54715644,1.20184692 L5.54715644,1.20184692 L1.13105484,14.5372221 C0.873746093,15.3142199 1.00697839,16.0438437 1.42864851,16.1668546 L1.42864851,16.1668546 L4.22346392,16.9822652 C4.64513404,17.1052914 5.19554813,16.5751601 5.45285687,15.7981623 L5.45285687,15.7981623 L8.49100695,6.62380769 L8.53916478,6.63785701 L9.11214267,4.90758178 Z" id="路径" fill="#3F3D56"></path>
                            <ellipse id="椭圆形" fill="#D0CDE1" transform="translate(6.304822, 4.467302) rotate(-72.732950) translate(-6.304822, -4.467302) " cx="6.30482153" cy="4.46730248" rx="1" ry="1"></ellipse>
                        </g>
                    </g>
                    <g id="编组-8" transform="translate(115.913978, 0.000000)">
                        <path d="M60.0859664,6.14813036 C62.4069181,6.14983786 64.7273055,6.91850579 66.6435755,8.45383728 L66.6435755,8.45383728 L113.565334,46.0479418 C116.05251,48.0406882 117.5,51.0552139 117.5,54.242232 L117.5,54.242232 L117.5,211 C117.5,213.899495 116.324747,216.524495 114.424621,218.424621 C112.524495,220.324747 109.899495,221.5 107,221.5 L107,221.5 L13,221.5 C10.1005051,221.5 7.47550506,220.324747 5.5753788,218.424621 C3.67525253,216.524495 2.5,213.899495 2.5,211 L2.5,211 L2.5,54.2540053 C2.5,51.06157 3.95239193,48.0425295 6.44673022,46.0500638 L6.44673022,46.0500638 L53.5249719,8.44418608 C55.4434989,6.91167581 57.7650148,6.14642287 60.0859664,6.14813036 Z" id="矩形" stroke="#3F3D56" stroke-width="5" fill="#FFFFFF"></path>
                        <circle id="椭圆形" stroke="#3F3D56" stroke-width="5" fill="#FFFFFF" cx="60" cy="45" r="11.5"></circle>
                        <path d="M66.1965445,43.2320307 C62.0655148,50.5816844 69.6053977,59.545704 88.8161932,70.1240894 C117.632386,85.9916675 123.884903,80.2896116 126.321173,75.2795699 C127.945352,71.9395421 126.531411,67.4609058 122.079349,61.843661" id="直线" stroke="#B2B2B2" stroke-width="5" stroke-linecap="round" stroke-linejoin="bevel"></path>
                        <text id="产品名称" font-family="PingFangSC-Medium, PingFang SC" font-size="12" font-weight="400" fill="#000000">
                            <tspan x="36" y="85">产品名称</tspan>
                        </text>
                        <text id="规格型号" font-family="PingFangSC-Medium, PingFang SC" font-size="12" font-weight="400" fill="#000000">
                            <tspan x="36" y="109">规格型号</tspan>
                        </text>
                        <text id="商品条码" font-family="PingFangSC-Medium, PingFang SC" font-size="12" font-weight="400" fill="#000000">
                            <tspan x="36" y="133">商品条码</tspan>
                        </text>
                        <text id="生产者名称" font-family="PingFangSC-Medium, PingFang SC" font-size="12" font-weight="400" fill="#000000">
                            <tspan x="30" y="157">生产者名称</tspan>
                        </text>
                        <text id="生产者地址" font-family="PingFangSC-Medium, PingFang SC" font-size="12" font-weight="400" fill="#000000">
                            <tspan x="30" y="181">生产者地址</tspan>
                        </text>
                        <text id="执行标准" font-family="PingFangSC-Medium, PingFang SC" font-size="12" font-weight="400" fill="#000000">
                            <tspan x="36" y="205">执行标准</tspan>
                        </text>
                    </g>
                </g>
            </g>
        </g>
    </g>
</svg>