<svg t="1631179490340" class="icon" viewBox="0 0 1024 1024" version="1.1" xmlns="http://www.w3.org/2000/svg" p-id="2391" width="32" height="32"><path d="M512 23.272727C781.870545 23.272727 1000.727273 242.129455 1000.727273 512S781.870545 1000.727273 512 1000.727273 23.272727 781.870545 23.272727 512 242.129455 23.272727 512 23.272727z m0 82.897455A405.876364 405.876364 0 0 0 106.170182 512 405.876364 405.876364 0 0 0 512 917.829818 405.876364 405.876364 0 0 0 917.829818 512 405.876364 405.876364 0 0 0 512 106.170182zM512 651.636364a52.363636 52.363636 0 1 1 0 104.727272A52.363636 52.363636 0 0 1 512 651.636364z m26.205091-384c4.794182 0 8.704 3.909818 8.704 8.750545v296.727273a8.750545 8.750545 0 0 1-8.750546 8.704h-52.31709a8.750545 8.750545 0 0 1-8.750546-8.750546V276.433455c0-4.840727 3.909818-8.750545 8.750546-8.750546z" p-id="2392" fill="#FAAD14"></path></svg>