<?xml version="1.0" encoding="UTF-8"?>
<svg width="214px" height="127px" viewBox="0 0 214 127" version="1.1" xmlns="http://www.w3.org/2000/svg" xmlns:xlink="http://www.w3.org/1999/xlink">
    <title>编组 2</title>
    <g id="页面-1" stroke="none" stroke-width="1" fill="none" fill-rule="evenodd">
        <g id="我的报告（暂无）" transform="translate(-84.000000, -240.000000)">
            <g id="编组-4" transform="translate(84.000000, 240.000000)">
                <g id="编组-2" transform="translate(0.000000, 1.000000)">
                    <ellipse id="椭圆形" fill="#EDEFF2" cx="107" cy="121.5" rx="107" ry="4.5"></ellipse>
                    <g id="编组-3" transform="translate(76.000000, 74.000000)">
                        <polygon id="矩形备份-3" fill="#BBC3D2" transform="translate(55.398507, 13.784615) scale(1, -1) translate(-55.398507, -13.784615) " points="38.8985075 11.1400925 71.8985075 8.24615385 71.8985075 17.4153846 38.8985075 19.3230769"></polygon>
                        <polygon id="矩形备份-3" fill="#C4C9D2" transform="translate(24.488970, 13.866414) scale(-1, -1) translate(-24.488970, -13.866414) " points="9.9779408 10.8076261 39 8.34821202 39 15.9631064 9.9779408 19.3846154"></polygon>
                        <polygon id="矩形" fill="#D6DAE0" points="10 12 44 13.2857143 44 48 10 44.7888049"></polygon>
                        <polygon id="矩形备份" fill="#C4C9D2" points="44 13.5504821 72 10.1538462 72 43.144829 44 48"></polygon>
                        <polygon id="矩形备份" fill="#EDEFF3" points="44 13.2857143 71.7581489 10.1538462 83 17.1896046 53.2957583 21.5646532"></polygon>
                        <polygon id="矩形备份-2" fill="#E7E9ED" transform="translate(58.592998, 5.261538) scale(1, -1) translate(-58.592998, -5.261538) " points="39 2.20699048 71.8985075 0.369230769 78.1859967 8.46150647 48.3201001 10.1538462"></polygon>
                        <polygon id="矩形备份-4" fill="#E7E9ED" transform="translate(20.000000, 6.000000) scale(-1, -1) translate(-20.000000, -6.000000) " points="1 3.65178798 30.7144123 -8.52651283e-14 39 9.05740986 13.4711617 12"></polygon>
                        <polygon id="矩形" fill="#EDEFF3" points="9.32890425 11.9384615 44 13.2102968 39.0097942 22.0923077 -2.14594511e-13 18.9637936"></polygon>
                    </g>
                    <g id="编组" transform="translate(30.000000, 91.000000)" fill-rule="nonzero">
                        <path d="M1.681508,16.5202002 C3.81092452,17.2462301 6.17658273,16.8420518 7.92207111,15.4539852 C10.1078238,13.6744252 10.7932539,10.7436356 11.3507032,8.02917621 L13,0 L9.54708105,2.30608583 C7.06378013,3.96449598 4.52471027,5.67619139 2.80545677,8.07827039 C1.08620328,10.4803494 0.336146132,13.7596495 1.71710821,16.3589181" id="b9ccae5a-ffdd-4f5c-9c1e-05af9f0f3372" fill="#D6DAE0"></path>
                        <path d="M0.792912649,26.9633564 C0.283809048,23.8231938 -0.240001247,20.6424229 0.117967938,17.4685894 C0.435196704,14.6498522 1.45099031,11.8972417 3.51898784,9.63931018 C4.61667335,8.44331456 5.9523579,7.41858323 7.46599062,6.61118694 C7.86059211,6.40036899 8.22386371,6.92974841 7.83094736,7.13976701 C5.21188476,8.5410261 3.18610074,10.6102392 2.04567036,13.0490698 C0.786168954,15.761072 0.583926901,18.7175603 0.800872522,21.5985414 C0.93200721,23.3407593 1.21066529,25.0715533 1.49052393,26.8003066 C1.53637551,26.962526 1.42596597,27.1270902 1.23790895,27.1768266 C1.04549282,27.2207083 0.847191829,27.1253497 0.793165889,26.9629594 L0.792912649,26.9633564 Z" id="f4ad1d06-bd03-4ced-a5c4-c19a65ab4ee5" fill="#F2F2F2"></path>
                        <path d="M4,22.1711502 C4.96285776,23.5988238 6.61980596,24.4330787 8.37089662,24.3718477 C10.58412,24.2694291 12.4284709,22.7636541 14.0886051,21.3336296 L19,17.1047089 L15.7496005,16.9529911 C13.4120472,16.8438045 11.0141738,16.7413913 8.78772072,17.4451814 C6.56126767,18.1489714 4.50795733,19.8401253 4.10090142,22.0875888" id="baf785f8-b4c6-42cf-85bd-8a16037845f7" fill="#D6DAE0"></path>
                        <path d="M0.0441585349,29.5700077 C2.31973699,25.7407134 4.95898561,21.4848843 9.67530781,20.1245943 C10.9865621,19.7476908 12.3614886,19.6126683 13.7260547,19.726797 C14.1561921,19.7621322 14.0487659,20.3925733 13.6195283,20.3574589 C11.3321275,20.1768465 9.04914129,20.751269 7.15490146,21.9840247 C5.33206899,23.164036 3.91273944,24.8046448 2.71161488,26.5442197 C1.97576696,27.6099382 1.31668191,28.7207726 0.657593963,29.8301191 C0.446990944,30.1847025 -0.168897205,29.9286492 0.0441585349,29.5700077 Z" id="a14e4330-7125-4e03-a856-d6453c34f6cc" fill="#F2F2F2"></path>
                    </g>
                    <path d="M151.514215,14.8075618 C152.555102,16.2591347 154.321908,17.1238241 156.174908,17.0885431 C158.51656,17.0187579 160.446557,15.5308168 162.182659,14.1163529 L167.318826,9.93347836 L163.875267,9.73184298 C161.3988,9.58675728 158.858573,9.44758179 156.511965,10.1225023 C154.165358,10.7974228 152.01692,12.4688198 151.619784,14.7249683" id="baf785f8-b4c6-42cf-85bd-8a16037845f7" fill="#D6DAE0" transform="translate(159.416521, 13.350805) rotate(-15.000000) translate(-159.416521, -13.350805) "></path>
                    <path d="M108,53 C125.896879,36.3278226 139.114832,30.0308287 147.653858,34.1090181 C160.462397,40.2263023 154.947027,52.6175563 147.653858,52.6175563 C140.360688,52.6175563 126.571999,44.9144586 143.091546,26.5 C154.104577,14.2236943 167.074062,5.39036096 182,0" id="直线-2" stroke="#C4C9D2" stroke-linecap="square" stroke-dasharray="3"></path>
                </g>
            </g>
        </g>
    </g>
</svg>