<svg t="1627982168792" class="icon" viewBox="0 0 1024 1024" version="1.1" xmlns="http://www.w3.org/2000/svg" p-id="2523" width="32" height="32"><path d="M0 0h1024v1024H0z" fill="#FFFFFF" p-id="2524"></path><path d="M625.024 597.504c13.141333-29.824 104.405333-89.429333 104.405333-234.752C729.429333 208.682667 608.256 128 512 128 415.744 128 294.570667 208.64 294.570667 362.752c0 145.322667 91.264 204.928 104.405333 234.752 13.141333 29.781333-1.28 79.786667-65.706667 102.954667-115.712 41.6-238.592 99.114667-247.893333 260.736C84.736 972.074667 85.333333 1024 85.333333 1024h853.248c0.64 0 0.64-51.968 0-62.805333-9.301333-161.621333-132.181333-219.136-247.893333-260.736-64.426667-23.210667-78.848-73.173333-65.706667-102.954667z" fill="#C1C1C1" p-id="2525"></path></svg>