<svg t="1631255019745" class="icon" viewBox="0 0 1204 1024" version="1.1" xmlns="http://www.w3.org/2000/svg" p-id="3498" width="32" height="32"><path d="M74.790011 984.506778c110.174903-173.21312 380.122345-278.90783 581.857261-301.245697l0.757216 261.491866c0 15.459823 9.338995 29.342113 23.599894 35.084333 14.260898 5.679119 30.414836 1.89304 41.268262-9.465198l425.176687-455.339117a38.050095 38.050095 0 0 0 0-51.743082L720.000997 11.863048a37.419082 37.419082 0 0 0-41.14206-9.08659 37.860791 37.860791 0 0 0-23.726096 35.084333v239.911215C331.927885 298.090631 5.37856 575.168522 5.37856 947.844911c0 6.436335 0 12.494061 0.378608 18.930396a37.355981 37.355981 0 1 0 68.969741 17.731471z m606.845384-371.919174C473.27484 623.441031 207.933794 733.679035 67.848866 889.223786c42.214782-306.67241 331.912937-542.797545 614.165137-542.797545a39.69073 39.69073 0 0 0 39.438324-39.627628V115.223008l371.666768 374.001517-369.773729 381.195068-0.315506-218.141259a39.753831 39.753831 0 0 0-39.438324-39.69073h-1.956141z" p-id="3499" fill="#ffffff"></path></svg>