<svg t="1631179518868" class="icon" viewBox="0 0 1024 1024" version="1.1" xmlns="http://www.w3.org/2000/svg" p-id="2577" width="32" height="32"><path d="M512 23.272727C781.870545 23.272727 1000.727273 242.129455 1000.727273 512S781.870545 1000.727273 512 1000.727273 23.272727 781.870545 23.272727 512 242.129455 23.272727 512 23.272727z m0 82.897455A405.876364 405.876364 0 0 0 106.170182 512 405.876364 405.876364 0 0 0 512 917.829818 405.876364 405.876364 0 0 0 917.829818 512 405.876364 405.876364 0 0 0 512 106.170182z m204.008727 232.354909c7.074909 0 11.217455 8.098909 6.981818 13.870545l-229.748363 318.557091a34.676364 34.676364 0 0 1-56.413091 0l-135.912727-188.509091a8.750545 8.750545 0 0 1 7.074909-13.870545h51.2a34.909091 34.909091 0 0 1 28.206545 14.522182l77.730909 107.799272 171.473455-237.847272a34.722909 34.722909 0 0 1 28.253091-14.522182z" p-id="2578" fill="#74c332"></path></svg>