<svg t="1627872831695" class="icon" viewBox="0 0 1024 1024" version="1.1" xmlns="http://www.w3.org/2000/svg" p-id="2087" width="32" height="32"><path d="M492.307692 164.312615c45.292308 0 87.945846 17.447385 120.004923 49.152a165.848615 165.848615 0 0 1 49.703385 118.705231 165.848615 165.848615 0 0 1-49.703385 118.705231 169.511385 169.511385 0 0 1-120.004923 49.152 169.511385 169.511385 0 0 1-120.004923-49.152 165.848615 165.848615 0 0 1-49.703384-118.705231c0-44.819692 17.644308-87.000615 49.703384-118.705231A169.511385 169.511385 0 0 1 492.307692 164.312615M492.307692 118.153846C372.814769 118.153846 275.968 213.976615 275.968 332.169846c0 118.193231 96.886154 214.016 216.339692 214.016 119.492923 0 216.339692-95.822769 216.339693-214.016C708.647385 213.976615 611.761231 118.153846 492.307692 118.153846z m0 510.503385c46.08 0 90.702769 6.104615 132.568616 18.195692 39.778462 11.460923 75.264 27.726769 105.511384 48.364308 28.987077 19.771077 51.475692 42.417231 66.914462 67.268923 11.815385 19.101538 19.062154 38.990769 21.543384 59.234461-12.603077 5.474462-40.763077 14.887385-98.343384 23.355077-64.039385 9.452308-145.092923 14.611692-228.194462 14.611693-83.101538 0-164.155077-5.198769-228.194461-14.611693-57.580308-8.467692-85.740308-17.880615-98.343385-23.355077a145.604923 145.604923 0 0 1 21.543385-59.234461c15.438769-24.851692 37.927385-47.497846 66.914461-67.268923 30.247385-20.637538 65.772308-36.903385 105.511385-48.364308a478.129231 478.129231 0 0 1 132.568615-18.195692m0-46.158769c-206.651077 0-374.153846 114.215385-374.153846 255.212307C118.153846 875.323077 285.656615 905.846154 492.307692 905.846154s374.153846-30.523077 374.153846-68.135385c0-140.996923-167.502769-255.212308-374.153846-255.212307z" fill="#999999" p-id="2088"></path></svg>