<?xml version="1.0" encoding="UTF-8"?>
<svg width="20px" height="16px" viewBox="0 0 20 16" version="1.1" xmlns="http://www.w3.org/2000/svg" xmlns:xlink="http://www.w3.org/1999/xlink">
    <title>形状</title>
    <g id="页面-1" stroke="none" stroke-width="1" fill="none" fill-rule="evenodd">
        <path d="M13.5539407,4.84721656 C13.7808594,4.84721656 14.0074861,4.86542189 14.2344048,4.8835803 C13.6105487,2.07733161 10.5671995,0 7.08889841,0 C3.19472567,0 0,2.60599005 0,5.92264493 C0,7.81792322 1.05861337,9.38494248 2.83551069,10.6059666 L2.13606363,12.7015504 L4.5936198,11.4805263 C5.48192243,11.6443743 6.20020638,11.8270845 7.08889841,11.8270845 C7.29663954,11.8270845 7.52360695,11.8270845 7.75052568,11.8088323 C7.59914918,11.3348368 7.52360695,10.8426828 7.52360695,10.3505289 C7.52365562,7.30756395 10.1891963,4.84721656 13.5539407,4.84721656 L13.5539407,4.84721656 Z M9.73526148,2.95250133 C10.2646898,2.95250133 10.6239048,3.29840263 10.6239048,3.82706108 C10.6239048,4.35562568 10.2646898,4.7015739 9.73526148,4.7015739 C9.20612515,4.7015739 8.67664811,4.35557876 8.67664811,3.82706108 C8.67669678,3.29840263 9.20612515,2.95250133 9.73526148,2.95250133 L9.73526148,2.95250133 Z M4.78247537,4.7015739 C4.25333904,4.7015739 3.723862,4.35557876 3.723862,3.82706108 C3.723862,3.29840263 4.25333904,2.95250133 4.78247537,2.95250133 C5.31195242,2.95250133 5.67111873,3.29840263 5.67111873,3.82706108 C5.6711674,4.35562568 5.31195242,4.7015739 4.78247537,4.7015739 L4.78247537,4.7015739 Z M20,10.2594084 C20,7.48957035 17.1832775,5.21193317 13.9885518,5.21193317 C10.6239048,5.21193317 7.97720104,7.48957035 7.97720104,10.2594084 C7.97720104,13.0474518 10.6239048,15.3075874 13.9885518,15.3075874 C14.7069818,15.3075874 15.4063315,15.1247834 16.1247128,14.9609823 L18.0530353,16 L17.5235583,14.2685228 C18.941338,13.2120036 20,11.8270845 20,10.2594084 L20,10.2594084 Z M12.0416358,9.38494248 C11.6824695,9.38494248 11.3422375,9.05719958 11.3422375,8.69243605 C11.3422375,8.34587785 11.6824695,7.99997654 12.0416358,7.99997654 C12.5707722,7.99997654 12.9299385,8.34587785 12.9299385,8.69243605 C12.9299385,9.05715266 12.5707722,9.38494248 12.0416358,9.38494248 L12.0416358,9.38494248 Z M15.9358086,9.38494248 C15.5766423,9.38494248 15.2364102,9.05719958 15.2364102,8.69243605 C15.2364102,8.34587785 15.5766423,7.99997654 15.9358086,7.99997654 C16.4649936,7.99997654 16.8241112,8.34587785 16.8241112,8.69243605 C16.8241112,9.05715266 16.4649936,9.38494248 15.9358086,9.38494248 L15.9358086,9.38494248 Z" id="形状" fill="#999999" fill-rule="nonzero"></path>
    </g>
</svg>