<?xml version="1.0" encoding="UTF-8"?>
<svg width="80px" height="80px" viewBox="0 0 80 80" version="1.1" xmlns="http://www.w3.org/2000/svg" xmlns:xlink="http://www.w3.org/1999/xlink">
    <title>编组 2</title>
    <defs>
        <linearGradient x1="50%" y1="0%" x2="50%" y2="100%" id="linearGradient-1">
            <stop stop-color="#FF782E" offset="0%"></stop>
            <stop stop-color="#FF5A00" offset="100%"></stop>
        </linearGradient>
        <path d="M50.6090013,48.6647585 L45.8919409,43.93379 C47.2127976,42.3173012 47.693314,40.6231087 47.693314,38.3738788 C47.693314,33.2066539 43.5014228,29 38.3465765,29 C33.1944017,29 29,33.204007 29,38.3738788 C29,43.5437828 33.1917625,47.747919 38.3465765,47.747919 C40.5867449,47.747919 42.5145014,47.2538504 44.126282,45.9291354 L48.8434712,50.6599748 C49.0262521,50.8432896 49.3841523,51 49.6235151,51 C49.8630389,51 50.2822992,50.8432896 50.4652411,50.6599748 C50.8281959,50.2932806 51.3842992,49.4109579 50.6090013,48.6647585 Z M31.6963704,38.4641498 C31.6963704,34.7373055 34.7210179,31.7040469 38.437282,31.7040469 C42.1536622,31.7040469 45.1782226,34.7373055 45.1782226,38.4641498 C45.1782226,42.1911104 42.1536622,45.2242817 38.437282,45.2242817 C34.7210179,45.2242817 31.6963704,42.1911104 31.6963704,38.4641498 Z" id="path-2"></path>
        <filter x="-36.4%" y="-18.2%" width="172.7%" height="172.7%" filterUnits="objectBoundingBox" id="filter-3">
            <feOffset dx="0" dy="4" in="SourceAlpha" result="shadowOffsetOuter1"></feOffset>
            <feGaussianBlur stdDeviation="2" in="shadowOffsetOuter1" result="shadowBlurOuter1"></feGaussianBlur>
            <feColorMatrix values="0 0 0 0 0.925490196   0 0 0 0 0.4   0 0 0 0 0.11372549  0 0 0 0.6 0" type="matrix" in="shadowBlurOuter1"></feColorMatrix>
        </filter>
    </defs>
    <g id="页面-1" stroke="none" stroke-width="1" fill="none" fill-rule="evenodd">
        <g id="登录1" transform="translate(-148.000000, -161.000000)">
            <g id="编组-2" transform="translate(148.000000, 161.000000)">
                <rect id="矩形" fill="url(#linearGradient-1)" x="0" y="0" width="80" height="80" rx="40"></rect>
                <path d="M42.3335232,9.34109597 L65.6669325,20.2539469 C67.0668459,21.1635362 68,22.5275648 68,24.3464769 L68,37.5329458 C68,41.6251206 67.0668459,45.262856 65.6669325,49.3550308 C64.266928,52.9927662 62.4002552,56.6305016 60.066732,59.8134423 C57.7336645,62.9963831 54.4669872,66.1793238 51.1999453,68.4529418 C47.933268,70.7262933 44.200196,72.0903219 40,73 C35.8001686,72.0903219 32.066732,70.7262933 28.8000547,68.4529418 C25.5333774,66.1793238 22.2667912,62.9963831 19.933268,59.8134423 C17.6001094,56.6305016 15.7334366,53.4475608 14.3335232,49.3550308 C12.9331541,45.262856 12,41.170326 12,37.0781512 L12,24.3464769 C12,22.5275648 12.9331541,21.1635362 14.3335232,20.2539469 L37.6669325,9.34109597 C39.0668459,8.88630134 40.9335187,8.88630134 42.3335232,9.34109597 Z" id="Fill-1" fill="#FFFFFF" opacity="0.4"></path>
                <path d="M41.8334825,15.2771405 L60.1668755,24.1438319 C61.2668075,24.8828731 62,25.9911464 62,27.4690125 L62,38.1830185 C62,41.5079105 61.2668075,44.4635705 60.1668755,47.7884625 C59.066872,50.7441225 57.6002005,53.6997825 55.766718,56.2859219 C53.9335935,58.8720613 51.3669185,61.4582006 48.799957,63.3055152 C46.233282,65.1526133 43.300154,66.2608866 40,67 C36.7001325,66.2608866 33.766718,65.1526133 31.200043,63.3055152 C28.6333679,61.4582006 26.0667645,58.8720613 24.233282,56.2859219 C22.4000859,53.6997825 20.9334145,51.1136432 19.8334825,47.7884625 C18.7331925,44.4635705 18,41.1383898 18,37.8134978 L18,27.4690125 C18,25.9911464 18.7331925,24.8828731 19.8334825,24.1438319 L38.1668755,15.2771405 C39.2668075,14.9076198 40.733479,14.9076198 41.8334825,15.2771405 Z" id="Fill-1" fill="#FFFFFF"></path>
                <g id="fangdajing">
                    <use fill="black" fill-opacity="1" filter="url(#filter-3)" xlink:href="#path-2"></use>
                    <use fill="#FF782E" fill-rule="evenodd" xlink:href="#path-2"></use>
                </g>
            </g>
        </g>
    </g>
</svg>